<svg width="10" height="13" viewBox="0 0 10 13" fill="none" xmlns="http://www.w3.org/2000/svg">
<path d="M8.78276 5.28956H8.42312L8.42166 3.51145C8.42021 1.57445 6.83168 -0.00144345 4.87915 9.9218e-07C2.92662 0.00144544 1.33809 1.57733 1.33955 3.51433L1.34246 5.29245H1.21433C0.543101 5.29389 -0.00145311 5.83411 2.91305e-06 6.5V11.7939C2.91305e-06 12.4598 0.546013 13 1.21724 13L8.78567 12.9957C9.4569 12.9957 10.0015 12.4554 10 11.7896V6.49422C10 5.82833 9.45399 5.28956 8.78276 5.28956ZM2.64706 5.29245L2.64415 3.51433C2.64415 2.29089 3.64589 1.29567 4.87915 1.29422C6.1124 1.29422 7.11561 2.28945 7.11561 3.51145L7.11852 5.28956L2.64706 5.29245Z" fill="white"/>
</svg>
